HIERARCHY
ROOT Hips
{
 OFFSET 0.000000 0.000000 0.000000
 CHANNELS 6 Xposition Yposition Zposition Yrotation Xrotation Zrotation
 JOINT Chest
 {
  OFFSET 0.000000 9.581000 -0.001100
  CHANNELS 3 Yrotation Xrotation Zrotation
  JOINT Chest2
  {
   OFFSET 0.000000 9.561100 0.002200
   CHANNELS 3 Yrotation Xrotation Zrotation
   JOINT Chest3
   {
    OFFSET 0.000000 9.521100 0.000000
    CHANNELS 3 Yrotation Xrotation Zrotation
    JOINT Chest4
    {
     OFFSET 0.000000 9.511400 0.000000
     CHANNELS 3 Yrotation Xrotation Zrotation
     JOINT Neck
     {
      OFFSET 0.000000 14.375100 0.000000
      CHANNELS 3 Yrotation Xrotation Zrotation
      JOINT Head
      {
       OFFSET 0.000000 8.901200 0.004600
       CHANNELS 3 Yrotation Xrotation Zrotation
       End Site
       {
        OFFSET 0.000000 16.962200 0.002400
       }
      }
     }
     JOINT RightCollar
     {
      OFFSET -2.920100 9.518800 0.000000
      CHANNELS 3 Yrotation Xrotation Zrotation
      JOINT RightShoulder
      {
       OFFSET -13.664500 0.000000 0.000000
       CHANNELS 3 Yrotation Xrotation Zrotation
       JOINT RightElbow
       {
        OFFSET 0.000000 -29.999200 0.000000
        CHANNELS 3 Yrotation Xrotation Zrotation
        JOINT RightWrist
        {
         OFFSET 0.000000 -24.253600 0.000000
         CHANNELS 3 Yrotation Xrotation Zrotation
         End Site
         {
          OFFSET 0.000000 -17.918900 0.000000
         }
        }
       }
      }
     }
     JOINT LeftCollar
     {
      OFFSET 2.920100 9.518800 0.000000
      CHANNELS 3 Yrotation Xrotation Zrotation
      JOINT LeftShoulder
      {
       OFFSET 13.664500 0.000000 0.000000
       CHANNELS 3 Yrotation Xrotation Zrotation
       JOINT LeftElbow
       {
        OFFSET 0.000000 -29.999200 0.000000
        CHANNELS 3 Yrotation Xrotation Zrotation
        JOINT LeftWrist
        {
         OFFSET 0.000000 -24.253600 0.000000
         CHANNELS 3 Yrotation Xrotation Zrotation
         End Site
         {
          OFFSET 0.000000 -17.918900 0.000000
         }
        }
       }
      }
     }
    }
   }
  }
 }
 JOINT RightHip
 {
  OFFSET -7.797300 0.005300 0.000500
  CHANNELS 3 Yrotation Xrotation Zrotation
  JOINT RightKnee
  {
   OFFSET 0.000000 -40.663400 -0.000500
   CHANNELS 3 Yrotation Xrotation Zrotation
   JOINT RightAnkle
   {
    OFFSET 0.000000 -39.523700 -0.000900
    CHANNELS 3 Yrotation Xrotation Zrotation
    JOINT RightToe
    {
     OFFSET 0.000000 -6.418000 14.485300
     CHANNELS 3 Yrotation Xrotation Zrotation
     End Site
     {
      OFFSET 0.000000 -1.465200 6.326400
     }
    }
   }
  }
 }
 JOINT LeftHip
 {
  OFFSET 7.797300 0.005300 0.000500
  CHANNELS 3 Yrotation Xrotation Zrotation
  JOINT LeftKnee
  {
   OFFSET 0.000000 -40.663400 -0.000500
   CHANNELS 3 Yrotation Xrotation Zrotation
   JOINT LeftAnkle
   {
    OFFSET 0.000000 -39.523700 -0.000900
    CHANNELS 3 Yrotation Xrotation Zrotation
    JOINT LeftToe
    {
     OFFSET 0.000000 -6.418000 14.485300
     CHANNELS 3 Yrotation Xrotation Zrotation
     End Site
     {
      OFFSET 0.000000 -1.465200 6.326400
     }
    }
   }
  }
 }
}
MOTION
Frames: 6
Frame Time: 0.008333
-13.269318 126.911181 30.780632 -160.097652 -49.759465 -2.886513 -4.253122 25.421703 -0.941460 -0.640348 4.147789 -0.018709 -1.044863 6.613092 -0.057969 -3.430645 20.972781 -0.622278 3.506578 19.161933 0.075417 3.717112 -5.419367 -0.720649 0.520878 3.737624 1.092063 5.315680 -7.517774 -10.917833 -89.847510 -64.831359 141.908655 11.646387 14.889888 0.196929 -9.441980 -1.534540 -0.546478 -9.556773 -16.381260 11.695525 65.981796 -61.822844 -110.049039 -13.014501 5.813342 -14.815011 -6.100159 -23.319520 -11.162189 -11.623448 78.183805 -13.454694 9.640070 -11.503142 4.418478 -0.001840 -0.001076 -0.000815 3.973844 4.953351 -2.214309 129.517944 65.035803 147.735043 10.712205 10.940849 3.772530 0.010145 0.003134 0.004495
-13.270248 126.911938 30.780720 -160.105278 -49.767682 -2.883756 -4.249353 25.429195 -0.940730 -0.655201 4.150760 -0.023116 -1.030035 6.611264 -0.054548 -3.434762 20.975346 -0.622211 3.502158 19.179466 0.095791 3.717353 -5.410595 -0.711710 0.523001 3.742259 1.092266 5.326427 -7.512484 -10.934336 -89.674341 -64.850347 141.754415 11.614259 14.890418 0.187806 -9.418746 -1.512595 -0.558964 -9.554563 -16.292717 11.624344 66.008063 -61.867842 -110.014195 -12.928808 5.860810 -14.783378 -6.091220 -23.313644 -11.171334 -11.594168 78.172088 -13.415266 9.639652 -11.468051 4.410328 -0.002615 -0.001216 -0.001159 3.976304 4.960602 -2.240335 129.505235 65.023137 147.726589 10.754926 10.984741 3.691030 0.001583 0.011593 0.000702
-13.268898 126.911544 30.781184 -160.107852 -49.766385 -2.896606 -4.249428 25.432072 -0.931073 -0.649387 4.148595 -0.020688 -1.038100 6.615744 -0.055577 -3.431276 20.973413 -0.621244 3.498220 19.192893 0.112491 3.724731 -5.416838 -0.723643 0.524541 3.747993 1.090939 5.333277 -7.473273 -10.978143 -89.603177 -64.834867 141.684140 11.597256 14.911299 0.204368 -9.404562 -1.503873 -0.567226 -9.536392 -16.194880 11.546125 66.008283 -61.898604 -109.965933 -12.819054 5.931365 -14.688143 -6.094458 -23.315207 -11.162955 -11.553480 78.160481 -13.370732 9.654458 -11.437889 4.406182 0.001104 -0.000235 0.000489 3.977697 4.962107 -2.235770 129.514330 65.022711 147.740024 10.756183 10.972703 3.713799 0.002854 0.006103 0.001264
-13.269294 126.911208 30.782150 -160.108252 -49.766032 -2.899971 -4.254264 25.431911 -0.935392 -0.649291 4.149166 -0.020513 -1.040631 6.614977 -0.057135 -3.427353 20.976114 -0.618315 3.496129 19.203859 0.129703 3.718348 -5.396067 -0.700727 0.494006 3.788831 1.081490 5.319765 -7.430026 -11.017367 -89.624111 -64.805966 141.745124 11.601467 14.950320 0.242184 -9.392898 -1.493270 -0.572668 -9.506516 -16.106725 11.464753 65.943168 -61.893209 -109.877119 -12.711774 6.023957 -14.530602 -6.095373 -23.320225 -11.172438 -11.477410 78.157772 -13.290601 9.662915 -11.411928 4.405958 0.002723 -0.000883 0.001207 3.977574 4.963270 -2.235839 129.521507 65.022329 147.749439 10.755032 10.960441 3.733129 0.006117 0.003481 0.002710
-13.270293 126.911790 30.782510 -160.113630 -49.773461 -2.897082 -4.254414 25.436252 -0.940058 -0.649428 4.149186 -0.020622 -1.038475 6.616411 -0.055633 -3.431685 20.974275 -0.621008 3.495576 19.220075 0.147673 3.694944 -5.364861 -0.650046 0.492811 3.803206 1.079089 5.280757 -7.405706 -11.022583 -89.541158 -64.831238 141.629107 11.638237 14.961262 0.345393 -9.369810 -1.462021 -0.585721 -9.481501 -16.045896 11.390533 65.807017 -61.854668 -109.735382 -12.613984 6.122867 -14.332022 -6.095652 -23.318892 -11.180129 -11.421995 78.158981 -13.232427 9.634207 -11.390455 4.409503 -0.001599 -0.001916 -0.000708 3.980241 4.973169 -2.244016 129.516786 65.019015 147.747144 10.786840 10.982752 3.669405 0.002784 0.015925 0.001234
-13.269755 126.912196 30.782639 -160.116207 -49.778979 -2.905309 -4.251778 25.438853 -0.932887 -0.649186 4.150485 -0.020688 -1.038057 6.618481 -0.055314 -3.429696 20.977023 -0.620238 3.491429 19.228217 0.158281 3.696333 -5.368855 -0.653699 0.486442 3.811097 1.074517 5.232732 -7.384514 -11.019752 -89.576546 -64.856977 141.651481 11.670443 15.012137 0.422062 -9.343833 -1.437254 -0.604557 -9.458193 -15.995739 11.318707 65.631800 -61.807208 -109.561831 -12.522646 6.215621 -14.109681 -6.098279 -23.313729 -11.178923 -11.362045 78.154114 -13.168569 9.652313 -11.372093 4.405142 0.003830 -0.001328 0.001697 3.978850 4.982856 -2.243146 129.529771 65.023066 147.763584 10.777919 10.952577 3.733644 0.006821 0.006184 0.003022
